<svg xmlns="http://www.w3.org/2000/svg" viewBox="0 0 1100 1320" width="1100" height="1320" font-family="'Courier New', monospace">
  <defs>
    <linearGradient id="bgGrad" x1="0%" y1="0%" x2="100%" y2="100%">
      <stop offset="0%" style="stop-color:#0d0d14"/>
      <stop offset="100%" style="stop-color:#0a0a10"/>
    </linearGradient>
    <linearGradient id="cnnGlow" x1="0%" y1="0%" x2="100%" y2="0%">
      <stop offset="0%" style="stop-color:#00d4aa;stop-opacity:0.12"/>
      <stop offset="100%" style="stop-color:#00d4aa;stop-opacity:0.03"/>
    </linearGradient>
    <linearGradient id="mvitGlow" x1="0%" y1="0%" x2="100%" y2="0%">
      <stop offset="0%" style="stop-color:#ff6b6b;stop-opacity:0.03"/>
      <stop offset="100%" style="stop-color:#ff6b6b;stop-opacity:0.12"/>
    </linearGradient>
    <filter id="softGlow">
      <feGaussianBlur stdDeviation="3" result="blur"/>
      <feMerge><feMergeNode in="blur"/><feMergeNode in="SourceGraphic"/></feMerge>
    </filter>
  </defs>

  <!-- Background -->
  <rect width="1100" height="1320" fill="url(#bgGrad)"/>
  <rect width="1100" height="1320" fill="url(#cnnGlow)"/>
  <rect width="1100" height="1320" fill="url(#mvitGlow)"/>

  <!-- Subtle grid lines -->
  <line x1="550" y1="0" x2="550" y2="1320" stroke="#1a1a2e" stroke-width="1"/>

  <!-- ═══════════════════════════════ HEADER ═══════════════════════════════ -->
  <rect x="60" y="24" width="980" height="64" rx="6" fill="#111118" stroke="#1e1e2e" stroke-width="1"/>
  <text x="550" y="50" text-anchor="middle" font-size="17" font-weight="bold" fill="#ffffff" letter-spacing="0.5">Model Architecture Comparison</text>
  <text x="550" y="72" text-anchor="middle" font-size="10" fill="#6e6e9e" letter-spacing="1.5">R(2+1)D-18  ·  MViT v2 Small  ·  EchoNet-Dynamic  ·  6 GB VRAM Constraint</text>

  <!-- ═══════════════════════════════ COLUMN HEADERS ═══════════════════════ -->
  <!-- CNN Header -->
  <rect x="60" y="108" width="470" height="44" rx="5" fill="#0d1f1b" stroke="#00d4aa" stroke-width="1.5"/>
  <circle cx="88" cy="130" r="6" fill="#00d4aa" filter="url(#softGlow)"/>
  <text x="104" y="126" font-size="14" font-weight="bold" fill="#00d4aa" letter-spacing="0.3">R(2+1)D-18</text>
  <text x="104" y="142" font-size="10" fill="#4a9e8a" letter-spacing="0.5">3D Convolutional Neural Network  ·  ~31.5M params</text>

  <!-- MViT Header -->
  <rect x="570" y="108" width="470" height="44" rx="5" fill="#1f0d0d" stroke="#ff6b6b" stroke-width="1.5"/>
  <circle cx="598" cy="130" r="6" fill="#ff6b6b" filter="url(#softGlow)"/>
  <text x="614" y="126" font-size="14" font-weight="bold" fill="#ff6b6b" letter-spacing="0.3">MViT v2 Small</text>
  <text x="614" y="142" font-size="10" fill="#9e4a4a" letter-spacing="0.5">Multiscale Vision Transformer  ·  ~34.5M params</text>

  <!-- ═══════════════════════════════ SHARED INPUT ══════════════════════════ -->
  <text x="550" y="178" text-anchor="middle" font-size="9" fill="#4a4a6e" letter-spacing="2" font-weight="bold">─────────────────  INPUT  ─────────────────</text>

  <!-- CNN Input -->
  <rect x="60" y="186" width="470" height="52" rx="4" fill="#0f0f1e" stroke="#333388" stroke-width="1"/>
  <rect x="60" y="186" width="28" height="52" rx="4" fill="#1a1a44"/>
  <text x="74" y="216" text-anchor="middle" font-size="8" fill="#8888cc" transform="rotate(-90, 74, 216)" letter-spacing="1">IN</text>
  <text x="102" y="207" font-size="11" font-weight="bold" fill="#ccccee">Video Clip</text>
  <text x="102" y="224" font-size="9" fill="#5a5a7e">T=16 frames  ·  112×112px  ·  temporal stride 2</text>

  <!-- MViT Input -->
  <rect x="570" y="186" width="470" height="52" rx="4" fill="#0f0f1e" stroke="#333388" stroke-width="1"/>
  <rect x="570" y="186" width="28" height="52" rx="4" fill="#1a1a44"/>
  <text x="584" y="216" text-anchor="middle" font-size="8" fill="#8888cc" transform="rotate(-90, 584, 216)" letter-spacing="1">IN</text>
  <text x="612" y="207" font-size="11" font-weight="bold" fill="#ccccee">Video Clip</text>
  <text x="612" y="224" font-size="9" fill="#5a5a7e">T=16 frames  ·  224×224px  ·  temporal stride 2</text>

  <!-- Arrows down -->
  <text x="295" y="255" text-anchor="middle" font-size="14" fill="#2a4a40">↓</text>
  <text x="805" y="255" text-anchor="middle" font-size="14" fill="#4a2a2a">↓</text>

  <!-- ═══════════════════════ BACKBONE SECTION ══════════════════════════════ -->
  <text x="295" y="272" text-anchor="middle" font-size="9" fill="#3a5a50" letter-spacing="2">── BACKBONE · KINETICS-400 PRETRAINED ──</text>
  <text x="805" y="272" text-anchor="middle" font-size="9" fill="#5a3a3a" letter-spacing="2">── BACKBONE · KINETICS-400 PRETRAINED ──</text>

  <!-- CNN: Stem -->
  <rect x="60" y="280" width="470" height="52" rx="4" fill="#0d1a17" stroke="#1a4a3a" stroke-width="1"/>
  <rect x="60" y="280" width="28" height="52" rx="4" fill="#0f2820"/>
  <text x="74" y="310" text-anchor="middle" font-size="8" fill="#00d4aa" transform="rotate(-90, 74, 310)" letter-spacing="1">STEM</text>
  <text x="102" y="299" font-size="11" font-weight="bold" fill="#c0ede4">Conv(2+1)D Stem</text>
  <rect x="102" y="305" width="44" height="14" rx="2" fill="#1a2a28" stroke="#3a5a52" stroke-width="0.5"/>
  <text x="124" y="315" text-anchor="middle" font-size="8" fill="#5a7a72">frozen</text>
  <text x="102" y="327" font-size="9" fill="#3a6a5a">3×1×1 temporal + 1×3×3 spatial conv  ·  BN + ReLU</text>

  <!-- Arrow -->
  <text x="295" y="345" text-anchor="middle" font-size="14" fill="#2a4a40">↓</text>

  <!-- CNN: Layer 1-2 -->
  <rect x="60" y="352" width="470" height="52" rx="4" fill="#0d1a17" stroke="#1a4a3a" stroke-width="1"/>
  <rect x="60" y="352" width="28" height="52" rx="4" fill="#0f2820"/>
  <text x="74" y="382" text-anchor="middle" font-size="8" fill="#00d4aa" transform="rotate(-90, 74, 382)" letter-spacing="1">L1–2</text>
  <text x="102" y="371" font-size="11" font-weight="bold" fill="#c0ede4">Residual Blocks 1–2</text>
  <rect x="102" y="377" width="44" height="14" rx="2" fill="#1a2a28" stroke="#3a5a52" stroke-width="0.5"/>
  <text x="124" y="387" text-anchor="middle" font-size="8" fill="#5a7a72">frozen</text>
  <text x="102" y="399" font-size="9" fill="#3a6a5a">2× R(2+1)D residual units  ·  stride 2  ·  64→128 ch</text>

  <!-- Arrow -->
  <text x="295" y="417" text-anchor="middle" font-size="14" fill="#2a4a40">↓</text>

  <!-- CNN: Layer 3 -->
  <rect x="60" y="424" width="470" height="52" rx="4" fill="#0d1a17" stroke="#1a4a3a" stroke-width="1"/>
  <rect x="60" y="424" width="28" height="52" rx="4" fill="#0f2820"/>
  <text x="74" y="454" text-anchor="middle" font-size="8" fill="#00d4aa" transform="rotate(-90, 74, 454)" letter-spacing="1">L3</text>
  <text x="102" y="443" font-size="11" font-weight="bold" fill="#c0ede4">Residual Block 3</text>
  <rect x="102" y="449" width="44" height="14" rx="2" fill="#1a2a28" stroke="#3a5a52" stroke-width="0.5"/>
  <text x="124" y="459" text-anchor="middle" font-size="8" fill="#5a7a72">frozen</text>
  <text x="102" y="471" font-size="9" fill="#3a6a5a">R(2+1)D residual unit  ·  stride 2  ·  128→256 ch</text>

  <!-- Arrow -->
  <text x="295" y="489" text-anchor="middle" font-size="14" fill="#2a4a40">↓</text>

  <!-- CNN: Layer 4 (fine-tuned) -->
  <rect x="60" y="496" width="470" height="52" rx="4" fill="#0d2018" stroke="#00d4aa" stroke-width="1.5"/>
  <rect x="60" y="496" width="28" height="52" rx="4" fill="#0a3020"/>
  <text x="74" y="526" text-anchor="middle" font-size="8" fill="#00d4aa" transform="rotate(-90, 74, 526)" letter-spacing="1">L4</text>
  <text x="102" y="515" font-size="11" font-weight="bold" fill="#c0ede4">Residual Block 4</text>
  <rect x="102" y="521" width="72" height="14" rx="2" fill="#0a3020" stroke="#00d4aa" stroke-width="0.8"/>
  <text x="138" y="531" text-anchor="middle" font-size="8" fill="#00d4aa">fine-tuned ✦</text>
  <text x="102" y="543" font-size="9" fill="#3a9a7a">R(2+1)D residual unit  ·  stride 2  ·  256→512 ch</text>

  <!-- Arrow -->
  <text x="295" y="561" text-anchor="middle" font-size="14" fill="#2a4a40">↓</text>

  <!-- CNN: Pool -->
  <text x="295" y="578" text-anchor="middle" font-size="9" fill="#3a5a50" letter-spacing="2">─── HEAD ───</text>
  <rect x="60" y="586" width="470" height="52" rx="4" fill="#161408" stroke="#4a3a0a" stroke-width="1"/>
  <rect x="60" y="586" width="28" height="52" rx="4" fill="#2a2000"/>
  <text x="74" y="616" text-anchor="middle" font-size="8" fill="#f0c040" transform="rotate(-90, 74, 616)" letter-spacing="1">POOL</text>
  <text x="102" y="605" font-size="11" font-weight="bold" fill="#ede8c0">Adaptive AvgPool3D</text>
  <text x="102" y="621" font-size="9" fill="#6a5a2a">512-dim embedding  (Phase 1 linear probe output)</text>
  <text x="490" y="614" text-anchor="end" font-size="9" fill="#3a3020">→ 512d</text>

  <!-- Arrow -->
  <text x="295" y="651" text-anchor="middle" font-size="14" fill="#2a4a40">↓</text>

  <!-- CNN: Classifier -->
  <rect x="60" y="658" width="470" height="52" rx="4" fill="#161408" stroke="#f0c040" stroke-width="1.5"/>
  <rect x="60" y="658" width="28" height="52" rx="4" fill="#2a2800"/>
  <text x="74" y="688" text-anchor="middle" font-size="8" fill="#f0c040" transform="rotate(-90, 74, 688)" letter-spacing="1">CLS</text>
  <text x="102" y="677" font-size="11" font-weight="bold" fill="#ede8c0">Linear Classifier</text>
  <rect x="102" y="683" width="72" height="14" rx="2" fill="#0a3020" stroke="#00d4aa" stroke-width="0.8"/>
  <text x="138" y="693" text-anchor="middle" font-size="8" fill="#00d4aa">fine-tuned ✦</text>
  <text x="102" y="705" font-size="9" fill="#6a5a2a">512 → 1  ·  Binary (HFrEF vs Normal EF)</text>

  <!-- ─── MViT Backbone ─── -->

  <!-- MViT: Patch Embed -->
  <rect x="570" y="280" width="470" height="52" rx="4" fill="#1a0d0d" stroke="#4a1a1a" stroke-width="1"/>
  <rect x="570" y="280" width="28" height="52" rx="4" fill="#280f0f"/>
  <text x="584" y="310" text-anchor="middle" font-size="8" fill="#ff6b6b" transform="rotate(-90, 584, 310)" letter-spacing="1">PATCH</text>
  <text x="612" y="299" font-size="11" font-weight="bold" fill="#edc0c0">Patch Embed + Pos. Embed</text>
  <rect x="612" y="305" width="44" height="14" rx="2" fill="#281a1a" stroke="#5a3a3a" stroke-width="0.5"/>
  <text x="634" y="315" text-anchor="middle" font-size="8" fill="#7a5a5a">frozen</text>
  <text x="612" y="327" font-size="9" fill="#6a3a3a">3D patch tokens  ·  kernel 3×7×7  ·  96-dim embed</text>

  <!-- Arrow -->
  <text x="805" y="345" text-anchor="middle" font-size="14" fill="#4a2a2a">↓</text>

  <!-- MViT: Stage 1-2 -->
  <rect x="570" y="352" width="470" height="52" rx="4" fill="#1a0d0d" stroke="#4a1a1a" stroke-width="1"/>
  <rect x="570" y="352" width="28" height="52" rx="4" fill="#280f0f"/>
  <text x="584" y="382" text-anchor="middle" font-size="8" fill="#ff6b6b" transform="rotate(-90, 584, 382)" letter-spacing="1">S1–2</text>
  <text x="612" y="371" font-size="11" font-weight="bold" fill="#edc0c0">Transformer Stages 1–2</text>
  <rect x="612" y="377" width="44" height="14" rx="2" fill="#281a1a" stroke="#5a3a3a" stroke-width="0.5"/>
  <text x="634" y="387" text-anchor="middle" font-size="8" fill="#7a5a5a">frozen</text>
  <text x="612" y="399" font-size="9" fill="#6a3a3a">Pooled MHPA + MLP  ·  high-res tokens  ·  96→192d</text>

  <!-- Arrow -->
  <text x="805" y="417" text-anchor="middle" font-size="14" fill="#4a2a2a">↓</text>

  <!-- MViT: Stage 3 -->
  <rect x="570" y="424" width="470" height="52" rx="4" fill="#1a0d0d" stroke="#4a1a1a" stroke-width="1"/>
  <rect x="570" y="424" width="28" height="52" rx="4" fill="#280f0f"/>
  <text x="584" y="454" text-anchor="middle" font-size="8" fill="#ff6b6b" transform="rotate(-90, 584, 454)" letter-spacing="1">S3</text>
  <text x="612" y="443" font-size="11" font-weight="bold" fill="#edc0c0">Transformer Stage 3</text>
  <rect x="612" y="449" width="44" height="14" rx="2" fill="#281a1a" stroke="#5a3a3a" stroke-width="0.5"/>
  <text x="634" y="459" text-anchor="middle" font-size="8" fill="#7a5a5a">frozen</text>
  <text x="612" y="471" font-size="9" fill="#6a3a3a">Pooled MHPA + MLP  ·  mid-res tokens  ·  192→384d</text>

  <!-- Arrow -->
  <text x="805" y="489" text-anchor="middle" font-size="14" fill="#4a2a2a">↓</text>

  <!-- MViT: Stage 4 (fine-tuned) -->
  <rect x="570" y="496" width="470" height="52" rx="4" fill="#200d0d" stroke="#ff6b6b" stroke-width="1.5"/>
  <rect x="570" y="496" width="28" height="52" rx="4" fill="#300a0a"/>
  <text x="584" y="526" text-anchor="middle" font-size="8" fill="#ff6b6b" transform="rotate(-90, 584, 526)" letter-spacing="1">S4</text>
  <text x="612" y="515" font-size="11" font-weight="bold" fill="#edc0c0">Transformer Stage 4</text>
  <rect x="612" y="521" width="72" height="14" rx="2" fill="#300a0a" stroke="#ff6b6b" stroke-width="0.8"/>
  <text x="648" y="531" text-anchor="middle" font-size="8" fill="#ff6b6b">fine-tuned ✦</text>
  <text x="612" y="543" font-size="9" fill="#9a4a4a">Global MHPA + MLP  ·  low-res tokens  ·  384→768d</text>

  <!-- Arrow -->
  <text x="805" y="561" text-anchor="middle" font-size="14" fill="#4a2a2a">↓</text>

  <!-- MViT: LayerNorm -->
  <rect x="570" y="568" width="470" height="52" rx="4" fill="#1a100d" stroke="#3a2a1a" stroke-width="1"/>
  <rect x="570" y="568" width="28" height="52" rx="4" fill="#281500"/>
  <text x="584" y="598" text-anchor="middle" font-size="8" fill="#ff9944" transform="rotate(-90, 584, 598)" letter-spacing="1">NORM</text>
  <text x="612" y="587" font-size="11" font-weight="bold" fill="#edd8c0">Layer Norm</text>
  <rect x="612" y="593" width="72" height="14" rx="2" fill="#300a0a" stroke="#ff6b6b" stroke-width="0.8"/>
  <text x="648" y="603" text-anchor="middle" font-size="8" fill="#ff6b6b">fine-tuned ✦</text>
  <text x="612" y="615" font-size="9" fill="#6a4a2a">768-dim embedding  (Phase 1 linear probe output)</text>
  <text x="1000" y="597" text-anchor="end" font-size="9" fill="#3a2a20">→ 768d</text>

  <!-- Arrow -->
  <text x="805" y="633" text-anchor="middle" font-size="14" fill="#4a2a2a">↓</text>

  <!-- MViT Head label -->
  <text x="805" y="650" text-anchor="middle" font-size="9" fill="#5a3a3a" letter-spacing="2">─── HEAD ───</text>

  <!-- MViT: Classifier -->
  <rect x="570" y="658" width="470" height="52" rx="4" fill="#161408" stroke="#f0c040" stroke-width="1.5"/>
  <rect x="570" y="658" width="28" height="52" rx="4" fill="#2a2800"/>
  <text x="584" y="688" text-anchor="middle" font-size="8" fill="#f0c040" transform="rotate(-90, 584, 688)" letter-spacing="1">CLS</text>
  <text x="612" y="677" font-size="11" font-weight="bold" fill="#ede8c0">Dropout + Linear</text>
  <rect x="612" y="683" width="72" height="14" rx="2" fill="#300a0a" stroke="#ff6b6b" stroke-width="0.8"/>
  <text x="648" y="693" text-anchor="middle" font-size="8" fill="#ff6b6b">fine-tuned ✦</text>
  <text x="612" y="705" font-size="9" fill="#6a5a2a">p=0.5 dropout  ·  768 → 1  ·  Binary (HFrEF vs Normal)</text>

  <!-- ═══════════════════════════ RESULTS SECTION ═══════════════════════════ -->
  <text x="550" y="736" text-anchor="middle" font-size="9" fill="#4a4a6e" letter-spacing="2">─────────────────────  PHASE 2 FINE-TUNING RESULTS  ─────────────────────</text>

  <!-- CNN Results -->
  <rect x="60" y="744" width="470" height="90" rx="5" fill="#0d1a17" stroke="#1e4a3a" stroke-width="1"/>
  <text x="295" y="764" text-anchor="middle" font-size="10" font-weight="bold" fill="#00d4aa" letter-spacing="1">TEST SET PERFORMANCE</text>

  <rect x="80" y="772" width="130" height="50" rx="4" fill="#091510" stroke="#0e3028" stroke-width="1"/>
  <text x="145" y="793" text-anchor="middle" font-size="18" font-weight="bold" fill="#00d4aa">0.902</text>
  <text x="145" y="811" text-anchor="middle" font-size="9" fill="#3a6a5a" letter-spacing="1">ROC-AUC</text>

  <rect x="225" y="772" width="130" height="50" rx="4" fill="#091510" stroke="#0e3028" stroke-width="1"/>
  <text x="290" y="793" text-anchor="middle" font-size="18" font-weight="bold" fill="#00d4aa">0.725</text>
  <text x="290" y="811" text-anchor="middle" font-size="9" fill="#3a6a5a" letter-spacing="1">SENS@90% SPEC</text>

  <rect x="370" y="772" width="130" height="50" rx="4" fill="#091510" stroke="#0e3028" stroke-width="1"/>
  <text x="435" y="793" text-anchor="middle" font-size="18" font-weight="bold" fill="#00d4aa">2.75m</text>
  <text x="435" y="811" text-anchor="middle" font-size="9" fill="#3a6a5a" letter-spacing="1">EPOCH TIME</text>

  <!-- MViT Results -->
  <rect x="570" y="744" width="470" height="90" rx="5" fill="#1a0d0d" stroke="#4a1e1e" stroke-width="1"/>
  <text x="805" y="764" text-anchor="middle" font-size="10" font-weight="bold" fill="#ff6b6b" letter-spacing="1">TEST SET PERFORMANCE</text>

  <rect x="590" y="772" width="130" height="50" rx="4" fill="#150909" stroke="#300e0e" stroke-width="1"/>
  <text x="655" y="793" text-anchor="middle" font-size="18" font-weight="bold" fill="#ff6b6b">0.936</text>
  <text x="655" y="811" text-anchor="middle" font-size="9" fill="#6a3a3a" letter-spacing="1">ROC-AUC</text>

  <rect x="735" y="772" width="130" height="50" rx="4" fill="#150909" stroke="#300e0e" stroke-width="1"/>
  <text x="800" y="793" text-anchor="middle" font-size="18" font-weight="bold" fill="#ff6b6b">0.825</text>
  <text x="800" y="811" text-anchor="middle" font-size="9" fill="#6a3a3a" letter-spacing="1">SENS@90% SPEC</text>

  <rect x="880" y="772" width="130" height="50" rx="4" fill="#150909" stroke="#300e0e" stroke-width="1"/>
  <text x="945" y="793" text-anchor="middle" font-size="18" font-weight="bold" fill="#ff6b6b">9.9m</text>
  <text x="945" y="811" text-anchor="middle" font-size="9" fill="#6a3a3a" letter-spacing="1">EPOCH TIME</text>

  <!-- ═══════════════════ BOOTSTRAP SIGNIFICANCE ════════════════════════════ -->
  <rect x="60" y="852" width="980" height="52" rx="5" fill="#131008" stroke="#3a3010" stroke-width="1"/>
  <rect x="60" y="852" width="6" height="52" rx="3" fill="#f0c040"/>
  <text x="84" y="874" font-size="10" font-weight="bold" fill="#f0c040" letter-spacing="0.5">Bootstrap Significance  (n=1000 paired resamples)</text>
  <text x="84" y="892" font-size="9.5" fill="#a09060">Phase 2:  ΔAUC = 0.0343  ·  95% CI [0.0132, 0.0567]  — excludes zero  →  MViT advantage is statistically significant</text>
  <text x="720" y="892" font-size="9" fill="#5a4a30">Phase 1:  CI [-0.0097, 0.0615]  — tie</text>

  <!-- ═══════════════════ COMPUTE COMPARISON ═══════════════════════════════ -->
  <text x="550" y="928" text-anchor="middle" font-size="9" fill="#4a4a6e" letter-spacing="2">─────────────────────────  COMPUTE PROFILE  ─────────────────────────────</text>

  <rect x="60" y="936" width="980" height="100" rx="5" fill="#0f0f18" stroke="#1e1e2e" stroke-width="1"/>

  <!-- Headers -->
  <text x="200" y="955" text-anchor="middle" font-size="9" fill="#4a4a6e" letter-spacing="1">METRIC</text>
  <text x="500" y="955" text-anchor="middle" font-size="9" fill="#00d4aa" letter-spacing="1">R(2+1)D-18</text>
  <text x="800" y="955" text-anchor="middle" font-size="9" fill="#ff6b6b" letter-spacing="1">MViT v2 Small</text>
  <line x1="80" y1="960" x2="1020" y2="960" stroke="#1e1e2e" stroke-width="0.5"/>

  <!-- Row 1 -->
  <text x="200" y="976" text-anchor="middle" font-size="9" fill="#5a5a7e">Trainable Params</text>
  <text x="500" y="976" text-anchor="middle" font-size="10" font-weight="bold" fill="#00d4aa">23.5M</text>
  <text x="800" y="976" text-anchor="middle" font-size="10" font-weight="bold" fill="#ff6b6b">13.6M</text>

  <!-- Row 2 -->
  <text x="200" y="995" text-anchor="middle" font-size="9" fill="#5a5a7e">Train Throughput</text>
  <text x="500" y="995" text-anchor="middle" font-size="10" font-weight="bold" fill="#00d4aa">5.7 it/s</text>
  <text x="800" y="995" text-anchor="middle" font-size="10" font-weight="bold" fill="#ff6b6b">3.1 it/s</text>

  <!-- Row 3 -->
  <text x="200" y="1014" text-anchor="middle" font-size="9" fill="#5a5a7e">Inference (1277 vids)</text>
  <text x="500" y="1014" text-anchor="middle" font-size="10" font-weight="bold" fill="#00d4aa">6m 28s</text>
  <text x="800" y="1014" text-anchor="middle" font-size="10" font-weight="bold" fill="#ff6b6b">14m 55s</text>

  <!-- Speed ratio note -->
  <rect x="880" y="972" width="120" height="32" rx="3" fill="#1a1008" stroke="#3a2a10" stroke-width="0.8"/>
  <text x="940" y="984" text-anchor="middle" font-size="8" fill="#f0a040">MViT is</text>
  <text x="940" y="997" text-anchor="middle" font-size="10" font-weight="bold" fill="#f0a040">3.6× slower</text>

  <!-- ═══════════════════ LEGEND ════════════════════════════════════════════ -->
  <text x="550" y="1058" text-anchor="middle" font-size="9" fill="#4a4a6e" letter-spacing="2">──────────────────────────  LEGEND  ──────────────────────────────────</text>

  <rect x="60" y="1066" width="980" height="44" rx="5" fill="#0f0f18" stroke="#1e1e2e" stroke-width="1"/>

  <!-- Frozen -->
  <rect x="100" y="1079" width="28" height="14" rx="2" fill="#1a2a28" stroke="#3a5a52" stroke-width="0.8"/>
  <text x="103" y="1090" font-size="7.5" fill="#5a7a72">frozen</text>
  <text x="136" y="1090" font-size="9" fill="#5a5a7e">Backbone frozen (both phases)</text>

  <!-- Fine-tuned CNN -->
  <rect x="330" y="1079" width="82" height="14" rx="2" fill="#0a3020" stroke="#00d4aa" stroke-width="0.8"/>
  <text x="333" y="1090" font-size="7.5" fill="#00d4aa">fine-tuned ✦</text>
  <text x="420" y="1090" font-size="9" fill="#5a5a7e">Unfrozen layers — CNN</text>

  <!-- Fine-tuned MViT -->
  <rect x="600" y="1079" width="82" height="14" rx="2" fill="#300a0a" stroke="#ff6b6b" stroke-width="0.8"/>
  <text x="603" y="1090" font-size="7.5" fill="#ff6b6b">fine-tuned ✦</text>
  <text x="690" y="1090" font-size="9" fill="#5a5a7e">Unfrozen layers — MViT</text>

  <!-- ═══════════════════ HARDWARE NOTE ════════════════════════════════════ -->
  <rect x="60" y="1126" width="980" height="36" rx="5" fill="#0f0f18" stroke="#1e1e2e" stroke-width="1"/>
  <text x="550" y="1142" text-anchor="middle" font-size="9" fill="#4a4a6e">Hardware  ·  NVIDIA GeForce RTX 3050 Laptop GPU  ·  6 GB VRAM  ·  PyTorch AMP (FP16)  ·  AdamW + ReduceLROnPlateau</text>
  <text x="550" y="1156" text-anchor="middle" font-size="9" fill="#3a3a5e">MViT batch size halved vs CNN to prevent OOM  ·  5-clip averaging at inference  ·  Thresholds locked on validation set</text>

  <!-- ═══════════════════ FOOTER ════════════════════════════════════════════ -->
  <text x="550" y="1200" text-anchor="middle" font-size="8.5" fill="#3a3a5e">EchoNet-Dynamic dataset  (Stanford)  ·  10,030 echocardiogram videos  ·  HFrEF threshold: EF ≤ 40%  ·  Split: 75 / 12.5 / 12.5</text>
  <text x="550" y="1218" text-anchor="middle" font-size="8" fill="#2a2a4e">Pretraining: Kinetics-400  ·  Paired bootstrap n=1000  ·  github.com/Gandalfthegloom/ecg-hfref-classifier</text>

  <!-- Decorative top-left corner accent -->
  <line x1="60" y1="24" x2="60" y2="88" stroke="#00d4aa" stroke-width="1.5" opacity="0.4"/>
  <line x1="60" y1="24" x2="130" y2="24" stroke="#00d4aa" stroke-width="1.5" opacity="0.4"/>

  <!-- Decorative top-right corner accent -->
  <line x1="1040" y1="24" x2="1040" y2="88" stroke="#ff6b6b" stroke-width="1.5" opacity="0.4"/>
  <line x1="970" y1="24" x2="1040" y2="24" stroke="#ff6b6b" stroke-width="1.5" opacity="0.4"/>

</svg>
